<svg color="#ffffff" xmlns="http://www.w3.org/2000/svg" id="Layer_2" data-name="Layer 2" viewBox="0 0 28 28"><defs><style>      .cls-1 {        stroke-width: 0px;      }    </style></defs><path class="cls-1" d="m26.354,23.646l-2-2-.707.707,1.146,1.146h-4.293V6c0-.276-.224-.5-.5-.5h-3.25c-.276,0-.5.224-.5.5v2.5h-2.75c-.276,0-.5.224-.5.5v2.5h-2.75c-.276,0-.5.224-.5.5v3.5h-2.75c-.276,0-.5.224-.5.5v7.5h-2V3.207l1.146,1.146.707-.707-2-2c-.195-.195-.512-.195-.707,0L1.646,3.646l.707.707,1.146-1.146v3.293h-1.5v1h1.5v2h-1.5v1h1.5v2h-1.5v1h1.5v2h-1.5v1h1.5v2h-1.5v1h1.5v2h-1.5v1h1.5v1.5c0,.276.224.5.5.5h1.5v1.5h1v-1.5h2v1.5h1v-1.5h2v1.5h1v-1.5h2v1.5h1v-1.5h2v1.5h1v-1.5h2v1.5h1v-1.5h3.293l-1.146,1.146.707.707,2-2c.195-.195.195-.512,0-.707Zm-18.854-7.146h2.25v7h-2.25v-7Zm3.25-.5v-3.5h2.25v11h-2.25v-7.5Zm3.25-4v-2.5h2.25v14h-2.25v-11.5Zm3.25,11.5V6.5h2.25v17h-2.25Z"></path></svg>