<svg xmlns="http://www.w3.org/2000/svg" id="Layer_2" data-name="Layer 2" viewBox="0 0 28 28"><defs><style>      .cls-1 {        stroke-width: 0px;      }    </style></defs><path class="cls-1" d="m20.372,6.605c-.09-.151-.253-.243-.429-.243h-11.831c-.176,0-.338.092-.429.243l-3.549,5.915c-.103.171-.094.386.022.548l9.465,13.223c.094.131.246.209.407.209s.312-.078.407-.209l9.465-13.223c.116-.162.125-.377.022-.548l-3.549-5.915Zm-9.011,5.672l2.666-4.443,2.666,4.443h-5.333Zm5.562,1l-2.896,10.676-2.896-10.676h5.792Zm-2.013-5.915h4.294l-1.717,4.294-2.577-4.294Zm-4.342,4.294l-1.717-4.294h4.294l-2.577,4.294Zm-.828.621h-4.294l2.576-4.293,1.717,4.293Zm.356,1l2.782,10.258-7.343-10.258h4.56Zm7.863,0h4.56l-7.343,10.258,2.782-10.258Zm.356-1l1.717-4.293,2.576,4.293h-4.294Z"></path><rect class="cls-1" x="7.673" y="3.284" width="3" height="1" transform="translate(3.152 11.671) rotate(-75.054)"></rect><rect class="cls-1" x="5.646" y="1.578" width="1" height="3.828" transform="translate(-.923 3.543) rotate(-30.012)"></rect><rect class="cls-1" x="4.387" y="4.761" width="1.001" height="3" transform="translate(-2.424 9.364) rotate(-75.021)"></rect><rect class="cls-1" x="18.327" y="2.284" width="1" height="3" transform="translate(-.338 4.997) rotate(-14.986)"></rect><rect class="cls-1" x="19.94" y="2.992" width="3.828" height="1" transform="translate(7.904 20.673) rotate(-60.005)"></rect><rect class="cls-1" x="21.613" y="5.76" width="3" height="1.001" transform="translate(-.833 6.187) rotate(-14.979)"></rect></svg>