<svg xmlns="http://www.w3.org/2000/svg" id="Layer_2" data-name="Layer 2" viewBox="0 0 28 28"><defs><style>      .cls-1 {        stroke-width: 0px;      }    </style></defs><path class="cls-1" d="m25.536,16.066c-.729-.486-1.672-.486-2.4,0l-3.649,2.432c.003-.044.013-.087.013-.132,0-1.103-.897-2-2-2h-4.333l-.473-.354c-2.132-1.599-5.163-1.385-7.048.5l-.718.718-.332-.458c-.077-.107-.194-.18-.326-.2-.124-.021-.265.012-.372.089l-2.428,1.761c-.224.162-.272.475-.11.698l5.284,7.286c.077.107.194.18.326.2.025.004.052.006.078.006.104,0,.208-.033.294-.095l2.428-1.762c.13-.095.193-.241.198-.39h8.368c.099,0,.195-.029.277-.084l6.923-4.615c.604-.402.964-1.075.964-1.801s-.36-1.398-.964-1.8ZM7.16,25.415l-4.697-6.476,1.618-1.174,4.697,6.476-1.618,1.174Zm17.821-6.58l-6.797,4.531h-8.708c-.03,0-.056.012-.085.017l-3.868-5.333.83-.83c1.535-1.534,4.003-1.71,5.741-.408l.605.454c.086.065.191.1.3.1h4.5c.552,0,1,.449,1,1s-.448,1-1,1h-5.164c-.276,0-.5.224-.5.5s.224.5.5.5h6c.099,0,.195-.029.277-.084l5.077-3.384c.393-.262.898-.262,1.291,0,.329.22.519.573.519.968s-.189.749-.519.969Z"></path><path class="cls-1" d="m17,9.101c-.197,0-.357-.16-.357-.357h-1c0,.571.356,1.059.857,1.259v.527h1v-.527c.501-.2.857-.688.857-1.259,0-.749-.609-1.357-1.357-1.357-.197,0-.357-.16-.357-.357s.16-.357.357-.357.357.16.357.357h1c0-.572-.356-1.059-.857-1.259v-.526h-1v.526c-.501.2-.857.688-.857,1.259,0,.748.609,1.357,1.357,1.357.197,0,.357.16.357.357s-.16.357-.357.357Z"></path><path class="cls-1" d="m17,14.387c3.584,0,6.5-2.916,6.5-6.5s-2.916-6.5-6.5-6.5-6.5,2.916-6.5,6.5,2.916,6.5,6.5,6.5Zm0-10.286c2.088,0,3.786,1.698,3.786,3.786s-1.698,3.786-3.786,3.786-3.786-1.698-3.786-3.786,1.698-3.786,3.786-3.786Zm-2.995,7.488c.699.567,1.553.933,2.495,1.033v.74c-1.141-.104-2.183-.555-3.017-1.251l.522-.521Zm3.495,1.033c.942-.1,1.796-.466,2.495-1.033l.522.521c-.834.695-1.876,1.147-3.017,1.251v-.74Zm3.202-1.74c.567-.699.934-1.553,1.034-2.495h.739c-.104,1.141-.555,2.183-1.251,3.017l-.522-.521Zm1.034-3.495c-.1-.942-.467-1.796-1.033-2.495l.522-.522c.695.834,1.147,1.875,1.251,3.017h-.739Zm-1.74-3.202c-.699-.567-1.553-.933-2.495-1.033v-.74c1.141.104,2.183.556,3.017,1.251l-.522.522Zm-3.495-1.033c-.942.1-1.796.466-2.495,1.033l-.522-.522c.834-.695,1.876-1.148,3.017-1.251v.74Zm-3.202,1.74c-.567.699-.934,1.553-1.033,2.495h-.739c.104-1.141.555-2.183,1.251-3.017l.522.522Zm-1.033,3.495c.1.942.467,1.796,1.034,2.495l-.522.521c-.695-.834-1.147-1.875-1.251-3.017h.739Z"></path></svg>