<svg xmlns="http://www.w3.org/2000/svg" id="Layer_2" data-name="Layer 2" viewBox="0 0 28 28"><defs><style>      .cls-1 {        stroke-width: 0px;      }    </style></defs><path class="cls-1" d="m23.494,9.337l-1.217-.44,1.217-.44c.377-.137.678-.411.849-.774.17-.363.188-.771.052-1.146-.137-.377-.411-.678-.774-.849-.361-.17-.771-.19-1.146-.052l-3.859,1.397c-.175-.205-.402-.361-.663-.448l.821-3.282c.037-.149.004-.308-.091-.429s-.24-.192-.395-.192h-5.107c-.267-.678-.929-1.144-1.678-1.144h-4.646c-.149,0-.292.067-.387.183-.095.116-.133.269-.104.415l1.039,5.195c-.606.193-1.049.754-1.049,1.423v.286c0,.504.252.949.635,1.221l-2.681,5.362c-1.307,2.613-.971,5.776.854,8.058,1.434,1.792,3.573,2.82,5.869,2.82h3.078c2.295,0,4.435-1.028,5.869-2.82,1.824-2.282,2.159-5.445.854-8.056l-2.274-4.589c.067-.07.127-.147.18-.229l3.734,1.353c.168.061.34.089.509.089.614,0,1.191-.38,1.411-.988.137-.377.119-.785-.051-1.147-.17-.363-.472-.638-.849-.774Zm-.681-2.762c.127-.047.264-.04.383.018.12.057.212.156.258.283.045.125.039.261-.018.382-.057.12-.156.212-.282.258l-2.346.85-.005-.002-.002.004-1.823.66v-1.028c0-.012-.003-.024-.004-.036l3.839-1.389Zm-4.835,3.425c0,.275-.225.5-.5.5s-.5-.225-.5-.5v-2c0-.275.225-.5.5-.5s.5.225.5.5v2Zm-6.477-7.463c.382,0,.714.271.786.64l.438,2.381.984-.182-.313-1.695h4.248l-.733,2.932c-.309.126-.562.355-.728.64h-7.777l-.943-4.716h4.036Zm-4.146,6.216c0-.275.225-.5.5-.5h8.123v1.286H7.855c-.275,0-.5-.225-.5-.5v-.286Zm11.843,14.302c-1.244,1.554-3.099,2.445-5.088,2.445h-3.078c-1.99,0-3.845-.892-5.088-2.445-1.582-1.978-1.873-4.72-.74-6.985l2.765-5.53h8.114c.217.561.759.961,1.396.961.064,0,.125-.011.186-.019l2.274,4.588c1.132,2.265.842,5.007-.74,6.985Zm4.256-12.137c-.095.26-.379.39-.641.3l-3.475-1.258,1.47-.532,2.345.849c.26.095.395.382.301.642Z"></path><path class="cls-1" d="m12.571,14.835c.663,0,1.203.54,1.203,1.203h1c0-1.042-.729-1.913-1.703-2.141v-.915h-1v.915c-.975.228-1.704,1.098-1.704,2.141,0,1.215.988,2.203,2.204,2.203.663,0,1.203.54,1.203,1.204s-.54,1.203-1.203,1.203-1.204-.54-1.204-1.203h-1c0,1.042.729,1.913,1.704,2.141v.914h1v-.914c.974-.228,1.703-1.098,1.703-2.141,0-1.216-.988-2.204-2.203-2.204-.664,0-1.204-.54-1.204-1.203s.54-1.203,1.204-1.203Z"></path></svg>